# xmcd
#
# Track frame offsets:
#	150
#	20168
#	37852
#	62008
#	86256
#	105102
#	127240
#	146886
#	167691
#	186601
#	207249
#	231815
#	248710
#
# Disc length: 3619 seconds
#
# Revision: 1
# Processed by: cddbd v1.5.2PL0 Copyright (c) Steve Scherf et al.
# Submitted via: EZCDAudioConverter 8.0.2.1
#
DISCID=b20e210d
DTITLE=Various Artist - Xuân Đã Về
DYEAR=2006
DGENRE=Hai Ngoai
TTITLE0=Bảo Hân, Như Loan, Tú Quyên - Xuân về trên môi em
TTITLE1=Dương Triệu Vũ - Dáng xuân
TTITLE2=Như Quỳnh - Xuân mong chờ
TTITLE3=Minh Tuyết - Mùa xuân
TTITLE4=Lương Tùng Quang, Bảo Hân - Mùa xuân trở về
TTITLE5=Nguyễn Hưng - Hãy mang đến những mùa xuân
TTITLE6=Bằng Kiều - Lắng nghe mùa xuân về
TTITLE7=Lưu Bích - Mùa xuân đang đến
TTITLE8=Hồ Lệ Thu - Cánh bướm vườn xuân
TTITLE9=Nhật Trung, La Sương Sương - Tình em mùa xuân
TTITLE10=Minh Tuyết - Mùa xuân đã mất
TTITLE11=Thủy Tiên - Em là xuân về
TTITLE12=Hợp Ca Thúy Nga Paris - Xuân Đã Về
EXTD=
EXTT0=
EXTT1=
EXTT2=
EXTT3=
EXTT4=
EXTT5=
EXTT6=
EXTT7=
EXTT8=
EXTT9=
EXTT10=
EXTT11=
EXTT12=
PLAYORDER=
